<svg width="1249" height="1588" viewBox="0 0 1249 1588" fill="none" xmlns="http://www.w3.org/2000/svg">
<rect width="1249" height="1588" fill="white"/>
<rect x="48" y="440" width="85" height="23" fill="#DBDBDB"/>
<rect x="153" y="440" width="84" height="23" fill="#DBDBDB"/>
<rect x="48" y="486" width="657" height="31" fill="#DBDBDB"/>
<rect x="48" y="527" width="448" height="32" fill="#DBDBDB"/>
<rect x="48" y="622" width="657" height="15" fill="#DBDBDB"/>
<rect x="84" y="585" width="62" height="12" fill="#DBDBDB"/>
<rect x="154" y="585" width="61" height="12" fill="#DBDBDB"/>
<rect x="48" y="647" width="597" height="15" fill="#DBDBDB"/>
<rect x="48" y="672" width="433" height="15" fill="#DBDBDB"/>
<rect x="48" y="728" width="117" height="20" fill="#DBDBDB"/>
<rect x="654" y="728" width="51" height="16" fill="#DBDBDB"/>
<circle cx="60.5" cy="590.5" r="12.5" fill="#DBDBDB"/>
<rect x="48" y="48" width="657" height="356" fill="#BABABA"/>
<path d="M413.735 181.22H340.097C334.162 181.22 329.335 186.046 329.335 191.988V259.666C329.335 265.601 334.162 270.421 340.097 270.421H413.735C419.67 270.421 424.492 265.601 424.492 259.666V191.988C424.492 186.046 419.671 181.22 413.735 181.22ZM390.869 197.234C396.609 197.234 401.264 201.89 401.264 207.63C401.264 213.369 396.608 218.025 390.869 218.025C385.127 218.025 380.473 213.369 380.473 207.63C380.473 201.89 385.127 197.234 390.869 197.234ZM410.36 260.473H376.913H344.956C342.085 260.473 340.806 258.396 342.1 255.833L359.941 220.497C361.233 217.935 363.697 217.706 365.441 219.986L383.38 243.429C385.125 245.709 388.174 245.903 390.193 243.861L394.581 239.417C396.598 237.374 399.569 237.627 401.215 239.978L412.579 256.21C414.222 258.565 413.231 260.473 410.36 260.473Z" fill="#C9C9C9"/>
<rect x="48" y="1231.26" width="84.6557" height="23.1688" fill="#DBDBDB"/>
<rect x="152.615" y="1231.26" width="84.6557" height="23.1688" fill="#DBDBDB"/>
<rect x="48" y="1276.77" width="657" height="31.4433" fill="#DBDBDB"/>
<rect x="48" y="1318.14" width="447.654" height="31.4433" fill="#DBDBDB"/>
<rect x="48" y="1413.3" width="657" height="14.8942" fill="#DBDBDB"/>
<rect x="84.4082" y="1376.07" width="61.2317" height="11.5844" fill="#DBDBDB"/>
<rect x="153.915" y="1376.07" width="61.2317" height="11.5844" fill="#DBDBDB"/>
<rect x="48" y="1438.13" width="597.423" height="14.8942" fill="#DBDBDB"/>
<rect x="48" y="1462.95" width="432.759" height="14.8942" fill="#DBDBDB"/>
<rect x="48" y="1519.22" width="116.671" height="19.8589" fill="#DBDBDB"/>
<rect x="653.698" y="1519.22" width="51.3023" height="15.7217" fill="#DBDBDB"/>
<circle cx="60.4118" cy="1381.86" r="12.4118" fill="#DBDBDB"/>
<rect x="48" y="839.048" width="657" height="355.806" fill="#BABABA"/>
<path d="M413.735 972.268H340.097C334.162 972.268 329.335 977.093 329.335 983.036V1050.71C329.335 1056.65 334.162 1061.47 340.097 1061.47H413.735C419.67 1061.47 424.492 1056.65 424.492 1050.71V983.036C424.492 977.093 419.671 972.268 413.735 972.268ZM390.869 988.282C396.609 988.282 401.264 992.938 401.264 998.677C401.264 1004.42 396.608 1009.07 390.869 1009.07C385.127 1009.07 380.473 1004.42 380.473 998.677C380.473 992.938 385.127 988.282 390.869 988.282ZM410.36 1051.52H376.913H344.956C342.085 1051.52 340.806 1049.44 342.1 1046.88L359.941 1011.55C361.233 1008.98 363.697 1008.75 365.441 1011.03L383.38 1034.48C385.125 1036.76 388.174 1036.95 390.193 1034.91L394.581 1030.46C396.598 1028.42 399.569 1028.67 401.215 1031.03L412.579 1047.26C414.222 1049.61 413.231 1051.52 410.36 1051.52Z" fill="#C9C9C9"/>
<rect x="811" y="48" width="390" height="1491" fill="#DADADA"/>
</svg>
