<svg width="1249" height="1588" viewBox="0 0 1249 1588" fill="none" xmlns="http://www.w3.org/2000/svg">
<g clip-path="url(#clip0)">
<rect width="1249" height="1588" fill="white"/>
<rect x="48" y="265.682" width="38.1756" height="22.7429" fill="#DBDBDB"/>
<rect x="95.9229" y="265.682" width="38.9879" height="22.7429" fill="#DBDBDB"/>
<rect x="48" y="310.356" width="300.532" height="30.8654" fill="#DBDBDB"/>
<rect x="48" y="350.969" width="205.499" height="30.8654" fill="#DBDBDB"/>
<rect x="48" y="444.377" width="300.532" height="14.6205" fill="#DBDBDB"/>
<rect x="48" y="588.957" width="300.532" height="0.812247" fill="#DBDBDB"/>
<rect x="83.7393" y="407.825" width="60.1063" height="11.3715" fill="#DBDBDB"/>
<rect x="151.968" y="407.825" width="60.1063" height="11.3715" fill="#DBDBDB"/>
<rect x="48" y="468.744" width="273.727" height="14.6205" fill="#DBDBDB"/>
<rect x="48" y="493.112" width="198.188" height="14.6205" fill="#DBDBDB"/>
<rect x="48" y="548.344" width="100.719" height="19.4939" fill="#DBDBDB"/>
<rect x="48" y="608.451" width="72.29" height="15.4327" fill="#DBDBDB"/>
<rect x="276.241" y="608.451" width="72.29" height="15.4327" fill="#DBDBDB"/>
<circle cx="60.1837" cy="413.512" r="12.1837" fill="#DBDBDB"/>
<rect x="48" y="48" width="300.532" height="191.69" fill="#BABABA"/>
<path d="M222.8 113.631H173.047C169.037 113.631 165.776 116.891 165.776 120.906V166.631C165.776 170.642 169.037 173.898 173.047 173.898H222.799C226.81 173.898 230.067 170.642 230.067 166.631V120.906C230.068 116.891 226.81 113.631 222.8 113.631ZM207.35 124.45C211.228 124.45 214.374 127.596 214.374 131.474C214.374 135.352 211.228 138.497 207.35 138.497C203.471 138.497 200.327 135.352 200.327 131.474C200.327 127.596 203.471 124.45 207.35 124.45ZM220.519 167.177H197.921H176.33C174.39 167.177 173.526 165.773 174.401 164.042L186.454 140.168C187.328 138.437 188.992 138.282 190.171 139.822L202.291 155.661C203.47 157.202 205.53 157.333 206.894 155.953L209.859 152.95C211.221 151.57 213.229 151.741 214.341 153.33L222.019 164.297C223.128 165.888 222.459 167.177 220.519 167.177Z" fill="#C9C9C9"/>
<rect x="412.699" y="265.682" width="38.1756" height="22.7429" fill="#DBDBDB"/>
<rect x="460.622" y="265.682" width="38.9879" height="22.7429" fill="#DBDBDB"/>
<rect x="412.699" y="310.356" width="300.532" height="30.8654" fill="#DBDBDB"/>
<rect x="412.699" y="350.969" width="205.499" height="30.8654" fill="#DBDBDB"/>
<rect x="412.699" y="444.377" width="300.532" height="14.6205" fill="#DBDBDB"/>
<rect x="412.699" y="588.957" width="300.532" height="0.812247" fill="#DBDBDB"/>
<rect x="448.438" y="407.825" width="60.1063" height="11.3715" fill="#DBDBDB"/>
<rect x="516.667" y="407.825" width="60.1063" height="11.3715" fill="#DBDBDB"/>
<rect x="412.699" y="468.744" width="273.727" height="14.6205" fill="#DBDBDB"/>
<rect x="412.699" y="493.112" width="198.188" height="14.6205" fill="#DBDBDB"/>
<rect x="412.699" y="548.344" width="100.719" height="19.4939" fill="#DBDBDB"/>
<rect x="412.699" y="608.451" width="72.29" height="15.4327" fill="#DBDBDB"/>
<rect x="640.94" y="608.451" width="72.29" height="15.4327" fill="#DBDBDB"/>
<circle cx="424.883" cy="413.512" r="12.1837" fill="#DBDBDB"/>
<rect x="412.699" y="48" width="300.532" height="191.69" fill="#BABABA"/>
<path d="M587.499 113.631H537.747C533.736 113.631 530.475 116.891 530.475 120.906V166.631C530.475 170.642 533.736 173.898 537.747 173.898H587.499C591.509 173.898 594.767 170.642 594.767 166.631V120.906C594.767 116.891 591.509 113.631 587.499 113.631ZM572.049 124.45C575.928 124.45 579.073 127.596 579.073 131.474C579.073 135.352 575.927 138.497 572.049 138.497C568.17 138.497 565.026 135.352 565.026 131.474C565.026 127.596 568.17 124.45 572.049 124.45ZM585.218 167.177H562.62H541.029C539.089 167.177 538.225 165.773 539.1 164.042L551.153 140.168C552.027 138.437 553.691 138.282 554.87 139.822L566.99 155.661C568.169 157.202 570.229 157.333 571.593 155.953L574.558 152.95C575.92 151.57 577.928 151.741 579.04 153.33L586.718 164.297C587.828 165.888 587.158 167.177 585.218 167.177Z" fill="#C9C9C9"/>
<rect x="48" y="933.132" width="38.5678" height="22.1765" fill="#DBDBDB"/>
<rect x="413.43" y="933.132" width="37.6036" height="22.1765" fill="#DBDBDB"/>
<rect x="95.2456" y="933.132" width="40.4962" height="22.1765" fill="#DBDBDB"/>
<rect x="461.64" y="933.132" width="37.6036" height="22.1765" fill="#DBDBDB"/>
<rect x="48" y="978.449" width="300.829" height="31.8185" fill="#DBDBDB"/>
<rect x="413.43" y="978.449" width="299.865" height="31.8185" fill="#DBDBDB"/>
<rect x="48" y="1019.91" width="205.374" height="29.8901" fill="#DBDBDB"/>
<rect x="413.43" y="1019.91" width="206.338" height="29.8901" fill="#DBDBDB"/>
<rect x="48" y="1111.51" width="300.829" height="15.4271" fill="#DBDBDB"/>
<rect x="413.43" y="1111.51" width="299.865" height="15.4271" fill="#DBDBDB"/>
<rect x="48" y="1257.1" width="300.829" height="0.964196" fill="#DBDBDB"/>
<rect x="413.43" y="1257.1" width="299.865" height="0.964196" fill="#DBDBDB"/>
<rect x="84.6396" y="1075.83" width="58.8159" height="10.6062" fill="#DBDBDB"/>
<rect x="447.177" y="1075.83" width="60.7443" height="10.6062" fill="#DBDBDB"/>
<rect x="152.133" y="1075.83" width="58.8159" height="10.6062" fill="#DBDBDB"/>
<rect x="516.599" y="1075.83" width="59.7801" height="10.6062" fill="#DBDBDB"/>
<rect x="48" y="1136.58" width="272.867" height="15.4271" fill="#DBDBDB"/>
<rect x="413.43" y="1136.58" width="271.903" height="15.4271" fill="#DBDBDB"/>
<rect x="48" y="1160.68" width="198.624" height="15.4271" fill="#DBDBDB"/>
<rect x="413.43" y="1160.68" width="197.66" height="15.4271" fill="#DBDBDB"/>
<rect x="48" y="1216.6" width="100.276" height="19.2839" fill="#DBDBDB"/>
<rect x="413.43" y="1216.6" width="99.3122" height="19.2839" fill="#DBDBDB"/>
<rect x="48" y="1276.39" width="73.2789" height="15.4271" fill="#DBDBDB"/>
<rect x="413.43" y="1276.39" width="72.3147" height="15.4271" fill="#DBDBDB"/>
<rect x="275.55" y="1276.39" width="73.2789" height="15.4271" fill="#DBDBDB"/>
<rect x="640.98" y="1276.39" width="72.3147" height="15.4271" fill="#DBDBDB"/>
<circle cx="60.0524" cy="1081.14" r="12.0524" fill="#DBDBDB"/>
<circle cx="425.483" cy="1081.14" r="12.0524" fill="#DBDBDB"/>
<rect x="48" y="716.188" width="300.829" height="191.875" fill="#BABABA"/>
<rect x="413.43" y="716.188" width="299.865" height="191.875" fill="#BABABA"/>
<path d="M222.799 781.509H173.047C169.037 781.509 165.775 784.769 165.775 788.784V834.509C165.775 838.519 169.037 841.776 173.047 841.776H222.799C226.809 841.776 230.067 838.519 230.067 834.509V788.784C230.067 784.769 226.809 781.509 222.799 781.509ZM207.35 792.328C211.228 792.328 214.373 795.474 214.373 799.352C214.373 803.23 211.228 806.375 207.35 806.375C203.47 806.375 200.326 803.23 200.326 799.352C200.326 795.474 203.47 792.328 207.35 792.328ZM220.519 835.054H197.921H176.329C174.39 835.054 173.526 833.651 174.4 831.92L186.454 808.045C187.327 806.314 188.992 806.16 190.17 807.7L202.29 823.539C203.469 825.08 205.529 825.211 206.893 823.831L209.858 820.828C211.221 819.448 213.228 819.619 214.34 821.207L222.018 832.175C223.128 833.765 222.458 835.054 220.519 835.054Z" fill="#C9C9C9"/>
<path d="M587.499 781.509H537.747C533.736 781.509 530.475 784.769 530.475 788.784V834.509C530.475 838.519 533.736 841.776 537.747 841.776H587.499C591.509 841.776 594.767 838.519 594.767 834.509V788.784C594.767 784.769 591.509 781.509 587.499 781.509ZM572.049 792.328C575.928 792.328 579.073 795.474 579.073 799.352C579.073 803.23 575.927 806.375 572.049 806.375C568.17 806.375 565.026 803.23 565.026 799.352C565.026 795.474 568.17 792.328 572.049 792.328ZM585.218 835.054H562.62H541.029C539.089 835.054 538.225 833.651 539.1 831.92L551.153 808.045C552.027 806.314 553.691 806.16 554.87 807.7L566.99 823.539C568.169 825.08 570.229 825.211 571.593 823.831L574.558 820.828C575.92 819.448 577.928 819.619 579.04 821.207L586.718 832.175C587.828 833.765 587.158 835.054 585.218 835.054Z" fill="#C9C9C9"/>
<rect x="48" y="1384.38" width="300.829" height="191.875" fill="#BABABA"/>
<rect x="413.43" y="1384.38" width="299.865" height="191.875" fill="#BABABA"/>
<path d="M222.799 1449.7H173.047C169.037 1449.7 165.775 1452.96 165.775 1456.97V1502.7C165.775 1506.71 169.037 1509.96 173.047 1509.96H222.799C226.809 1509.96 230.067 1506.71 230.067 1502.7V1456.97C230.067 1452.96 226.809 1449.7 222.799 1449.7ZM207.35 1460.52C211.228 1460.52 214.373 1463.66 214.373 1467.54C214.373 1471.42 211.228 1474.56 207.35 1474.56C203.47 1474.56 200.326 1471.42 200.326 1467.54C200.326 1463.66 203.47 1460.52 207.35 1460.52ZM220.519 1503.24H197.921H176.329C174.39 1503.24 173.526 1501.84 174.4 1500.11L186.454 1476.23C187.327 1474.5 188.992 1474.35 190.17 1475.89L202.29 1491.73C203.469 1493.27 205.529 1493.4 206.893 1492.02L209.858 1489.02C211.221 1487.64 213.228 1487.81 214.34 1489.4L222.018 1500.36C223.128 1501.95 222.458 1503.24 220.519 1503.24Z" fill="#C9C9C9"/>
<path d="M587.499 1449.7H537.747C533.736 1449.7 530.475 1452.96 530.475 1456.97V1502.7C530.475 1506.71 533.736 1509.96 537.747 1509.96H587.499C591.509 1509.96 594.767 1506.71 594.767 1502.7V1456.97C594.767 1452.96 591.509 1449.7 587.499 1449.7ZM572.049 1460.52C575.928 1460.52 579.073 1463.66 579.073 1467.54C579.073 1471.42 575.927 1474.56 572.049 1474.56C568.17 1474.56 565.026 1471.42 565.026 1467.54C565.026 1463.66 568.17 1460.52 572.049 1460.52ZM585.218 1503.24H562.62H541.029C539.089 1503.24 538.225 1501.84 539.1 1500.11L551.153 1476.23C552.027 1474.5 553.691 1474.35 554.87 1475.89L566.99 1491.73C568.169 1493.27 570.229 1493.4 571.593 1492.02L574.558 1489.02C575.92 1487.64 577.928 1487.81 579.04 1489.4L586.718 1500.36C587.828 1501.95 587.158 1503.24 585.218 1503.24Z" fill="#C9C9C9"/>
<rect x="811" y="48" width="390" height="1500" fill="#DADADA"/>
</g>
<defs>
<clipPath id="clip0">
<rect width="1249" height="1588" fill="white"/>
</clipPath>
</defs>
</svg>
