<svg width="1433" height="275" viewBox="0 0 1433 275" fill="none" xmlns="http://www.w3.org/2000/svg">
<rect width="1433" height="275" fill="white"/>
<rect width="1433" height="58" fill="black" fill-opacity="0.04"/>
<rect x="1327" y="17" width="24" height="24" fill="#E2E2E2"/>
<rect x="1361" y="17" width="24" height="24" fill="#E2E2E2"/>
<rect x="48" y="17" width="24" height="24" fill="#E2E2E2"/>
<rect x="80" y="17" width="24" height="24" fill="#E2E2E2"/>
<rect x="112" y="17" width="24" height="24" fill="#E2E2E2"/>
<rect x="144" y="17" width="24" height="24" fill="#E2E2E2"/>
<rect x="176" y="17" width="24" height="24" fill="#E2E2E2"/>
<rect x="316" y="227" width="100" height="24" fill="#E2E2E2"/>
<rect x="456" y="227" width="100" height="24" fill="#E2E2E2"/>
<rect x="596" y="227" width="100" height="24" fill="#E2E2E2"/>
<rect x="736" y="227" width="100" height="24" fill="#E2E2E2"/>
<rect x="876" y="227" width="100" height="24" fill="#E2E2E2"/>
<rect x="1016" y="227" width="100" height="24" fill="#E2E2E2"/>
<rect x="650" y="106" width="133" height="64" fill="#E2E2E2"/>
</svg>
