<svg width="1433" height="768" viewBox="0 0 1433 768" fill="none" xmlns="http://www.w3.org/2000/svg">
<rect width="1433" height="768" fill="white"/>
<rect width="1433" height="768" fill="#BABABA"/>
<rect x="578" y="531" width="123" height="30" fill="#E8E8E8"/>
<rect x="730" y="531" width="123" height="30" fill="#E8E8E8"/>
<rect x="400" y="599" width="631" height="48" fill="#E8E8E8"/>
<rect x="409" y="605" width="613" height="35" fill="#A0A0A0"/>
<rect x="490" y="672" width="451" height="48" fill="#E8E8E8"/>
<path d="M781.121 277.227H651.888C641.471 277.227 633 285.695 633 296.124V414.897C633 425.314 641.471 433.773 651.888 433.773H781.12C791.537 433.773 799.999 425.314 799.999 414.897V296.124C800 285.695 791.538 277.227 781.121 277.227ZM740.991 305.331C751.064 305.331 759.234 313.501 759.234 323.574C759.234 333.648 751.064 341.818 740.991 341.818C730.914 341.818 722.747 333.648 722.747 323.574C722.747 313.501 730.914 305.331 740.991 305.331ZM775.197 416.313H716.498H660.414C655.376 416.313 653.132 412.668 655.403 408.171L686.712 346.157C688.981 341.66 693.305 341.259 696.366 345.26L727.849 386.402C730.911 390.404 736.262 390.744 739.804 387.159L747.506 379.36C751.045 375.775 756.26 376.219 759.149 380.345L779.092 408.833C781.975 412.965 780.236 416.313 775.197 416.313Z" fill="#C9C9C9"/>
<rect x="1376" y="356" width="57" height="57" fill="#747474"/>
<path d="M1399 397.5L1410 386.5L1399 375.5" stroke="white" stroke-width="3"/>
<rect x="57" y="412" width="57" height="57" transform="rotate(180 57 412)" fill="#747474"/>
<path d="M34 370.5L23 381.5L34 392.5" stroke="white" stroke-width="3"/>
<rect x="501" y="678" width="429" height="35" fill="#A0A0A0"/>
</svg>
