<svg width="1433" height="887" viewBox="0 0 1433 887" fill="none" xmlns="http://www.w3.org/2000/svg">
<rect width="1433" height="887" fill="white"/>
<rect x="212" y="116" width="1010" height="652" fill="#BABABA"/>
<rect x="1350" y="116" width="83" height="652" fill="#BABABA"/>
<rect y="116" width="84" height="652" fill="#BABABA"/>
<rect x="367" y="534" width="700" height="234" fill="white"/>
<rect x="579" y="592" width="123" height="38" fill="#E8E8E8"/>
<rect x="731" y="592" width="123" height="38" fill="#E8E8E8"/>
<rect x="452" y="659" width="533" height="38" fill="#E8E8E8"/>
<rect x="528" y="709" width="381" height="38" fill="#E8E8E8"/>
<rect x="117" y="414" width="57" height="57" fill="#C4C4C4"/>
<rect x="1257" y="414" width="57" height="57" fill="#C4C4C4"/>
<path d="M149 433.5L138 444.5L149 455.5" stroke="black"/>
<path d="M1280 455.5L1291 444.5L1280 433.5" stroke="black"/>
<path d="M781.121 262.227H651.888C641.471 262.227 633 270.695 633 281.125V399.897C633 410.314 641.471 418.774 651.888 418.774H781.12C791.537 418.774 799.999 410.314 799.999 399.897V281.125C800 270.695 791.538 262.227 781.121 262.227ZM740.991 290.331C751.064 290.331 759.234 298.502 759.234 308.575C759.234 318.648 751.064 326.818 740.991 326.818C730.914 326.818 722.747 318.648 722.747 308.575C722.747 298.502 730.914 290.331 740.991 290.331ZM775.197 401.314H716.498H660.414C655.376 401.314 653.132 397.668 655.403 393.171L686.712 331.157C688.981 326.661 693.305 326.259 696.366 330.26L727.849 371.403C730.911 375.404 736.262 375.745 739.804 372.16L747.506 364.361C751.045 360.776 756.26 361.219 759.149 365.346L779.092 393.833C781.975 397.966 780.236 401.314 775.197 401.314Z" fill="#C9C9C9"/>
</svg>
